{
    "asset" : {
        "generator" : "Khronos glTF Blender I/O v3.2.43",
        "version" : "2.0"
    },
    "scene" : 0,
    "scenes" : [
        {
            "name" : "Scene",
            "nodes" : [
                0,
                1,
                2,
                3,
                4
            ]
        }
    ],
    "nodes" : [
        {
            "mesh" : 0,
            "name" : "\u74f6\u8eab"
        },
        {
            "name" : "\u7a7a\u7269\u4f53",
            "rotation" : [
                0.7071068286895752,
                0,
                0,
                0.7071068286895752
            ],
            "translation" : [
                0,
                2.295286178588867,
                0
            ]
        },
        {
            "name" : "\u7a7a\u7269\u4f53.001",
            "rotation" : [
                0,
                0.30901700258255005,
                0,
                0.9510564804077148
            ]
        },
        {
            "mesh" : 1,
            "name" : "\u6807\u7b7e"
        },
        {
            "mesh" : 2,
            "name" : "\u5e73\u9762",
            "scale" : [
                8.440571784973145,
                8.440571784973145,
                8.440571784973145
            ]
        }
    ],
    "materials" : [
        {
            "doubleSided" : true,
            "name" : "\u6750\u8d28.002",
            "pbrMetallicRoughness" : {}
        },
        {
            "doubleSided" : true,
            "name" : "\u6750\u8d28.003",
            "pbrMetallicRoughness" : {
                "baseColorTexture" : {
                    "index" : 0
                },
                "metallicFactor" : 0,
                "roughnessFactor" : 0.5
            }
        }
    ],
    "meshes" : [
        {
            "name" : "\u5706\u73af",
            "primitives" : [
                {
                    "attributes" : {
                        "POSITION" : 0,
                        "NORMAL" : 1,
                        "TEXCOORD_0" : 2
                    },
                    "indices" : 3,
                    "material" : 0
                }
            ]
        },
        {
            "name" : "\u5706\u73af.001",
            "primitives" : [
                {
                    "attributes" : {
                        "POSITION" : 4,
                        "NORMAL" : 5,
                        "TEXCOORD_0" : 6
                    },
                    "indices" : 7,
                    "material" : 1
                }
            ]
        },
        {
            "name" : "\u5e73\u9762",
            "primitives" : [
                {
                    "attributes" : {
                        "POSITION" : 8,
                        "NORMAL" : 9,
                        "TEXCOORD_0" : 10
                    },
                    "indices" : 11
                }
            ]
        }
    ],
    "textures" : [
        {
            "sampler" : 0,
            "source" : 0
        }
    ],
    "images" : [
        {
            "bufferView" : 8,
            "mimeType" : "image/png",
            "name" : "1"
        }
    ],
    "accessors" : [
        {
            "bufferView" : 0,
            "componentType" : 5126,
            "count" : 1842,
            "max" : [
                0.870617151260376,
                4.616672039031982,
                0.8831935524940491
            ],
            "min" : [
                -0.8706172704696655,
                -0.21594791114330292,
                -0.8831936717033386
            ],
            "type" : "VEC3"
        },
        {
            "bufferView" : 1,
            "componentType" : 5126,
            "count" : 1842,
            "type" : "VEC3"
        },
        {
            "bufferView" : 2,
            "componentType" : 5126,
            "count" : 1842,
            "type" : "VEC2"
        },
        {
            "bufferView" : 3,
            "componentType" : 5123,
            "count" : 11040,
            "type" : "SCALAR"
        },
        {
            "bufferView" : 4,
            "componentType" : 5126,
            "count" : 210,
            "max" : [
                0.7838485836982727,
                2.962759494781494,
                0.7822494506835938
            ],
            "min" : [
                -0.7838487029075623,
                1.9530375003814697,
                -0.7822495698928833
            ],
            "type" : "VEC3"
        },
        {
            "bufferView" : 5,
            "componentType" : 5126,
            "count" : 210,
            "type" : "VEC3"
        },
        {
            "bufferView" : 6,
            "componentType" : 5126,
            "count" : 210,
            "type" : "VEC2"
        },
        {
            "bufferView" : 7,
            "componentType" : 5123,
            "count" : 1200,
            "type" : "SCALAR"
        },
        {
            "bufferView" : 9,
            "componentType" : 5126,
            "count" : 12,
            "max" : [
                1,
                1.2793443202972412,
                1
            ],
            "min" : [
                -1,
                0,
                -1
            ],
            "type" : "VEC3"
        },
        {
            "bufferView" : 10,
            "componentType" : 5126,
            "count" : 12,
            "type" : "VEC3"
        },
        {
            "bufferView" : 11,
            "componentType" : 5126,
            "count" : 12,
            "type" : "VEC2"
        },
        {
            "bufferView" : 12,
            "componentType" : 5123,
            "count" : 18,
            "type" : "SCALAR"
        }
    ],
    "bufferViews" : [
        {
            "buffer" : 0,
            "byteLength" : 22104,
            "byteOffset" : 0
        },
        {
            "buffer" : 0,
            "byteLength" : 22104,
            "byteOffset" : 22104
        },
        {
            "buffer" : 0,
            "byteLength" : 14736,
            "byteOffset" : 44208
        },
        {
            "buffer" : 0,
            "byteLength" : 22080,
            "byteOffset" : 58944
        },
        {
            "buffer" : 0,
            "byteLength" : 2520,
            "byteOffset" : 81024
        },
        {
            "buffer" : 0,
            "byteLength" : 2520,
            "byteOffset" : 83544
        },
        {
            "buffer" : 0,
            "byteLength" : 1680,
            "byteOffset" : 86064
        },
        {
            "buffer" : 0,
            "byteLength" : 2400,
            "byteOffset" : 87744
        },
        {
            "buffer" : 0,
            "byteLength" : 51520,
            "byteOffset" : 90144
        },
        {
            "buffer" : 0,
            "byteLength" : 144,
            "byteOffset" : 141664
        },
        {
            "buffer" : 0,
            "byteLength" : 144,
            "byteOffset" : 141808
        },
        {
            "buffer" : 0,
            "byteLength" : 96,
            "byteOffset" : 141952
        },
        {
            "buffer" : 0,
            "byteLength" : 36,
            "byteOffset" : 142048
        }
    ],
    "samplers" : [
        {
            "magFilter" : 9729,
            "minFilter" : 9987
        }
    ],
    "buffers" : [
        {
            "byteLength" : 142084,
            "uri" : "data:application/octet-stream;base64,"
        }
    ]
}
